# xmcd CD database file
#
# Track frame offsets:
#	150
#	13342
#	34462
#	57447
#	72982
#	103310
#	133160
#	155452
#	175495
#	190682
#
# Disc length: 2843 seconds
#
# Revision: 28
# Processed by: cddbd v1.5.2PL0 Copyright (c) Steve Scherf et al.
# Submitted via: CDex 1.78
#
DISCID=970b190a
DTITLE=John Lee Hooker - Mr. Lucky
DYEAR=1991
DGENRE=Blues
TTITLE0=I Want To Hug You
TTITLE1=Mr. Lucky
TTITLE2=Backstabbers
TTITLE3=This Is Hip
TTITLE4=I Cover The Waterfront
TTITLE5=Highway 13
TTITLE6=Stripped Me Naked
TTITLE7=Susie
TTITLE8=Crawlin' Kingsnake
TTITLE9=Father Was A Jockey
EXTD=This album is dedicated to the memory of Stevie Ray Vaughan YEAR: 1991
EXTT0=
EXTT1=
EXTT2=
EXTT3=ft Ry Cooder
EXTT4=ft Van Morrison
EXTT5=ft John Hammond
EXTT6=ft Carlos Santana
EXTT7=ft Johnny Winter
EXTT8=ft Keith Richards
EXTT9=ft John Hammond
PLAYORDER=
